<svg id="Layer_1" data-name="Layer 1" xmlns="http://www.w3.org/2000/svg" viewBox="0 0 45.9 37.8"><title>icon-rubrics-default</title><path d="M46,19H2.1a1,1,0,0,1,0-2H46a1,1,0,0,1,0,2Z" transform="translate(-1.1 -5.1)" style="fill:#fff"/><path d="M46,31H2.1a1,1,0,0,1,0-2H46a1,1,0,0,1,0,2Z" transform="translate(-1.1 -5.1)" style="fill:#fff"/><path d="M46,42.9H2.1a1,1,0,0,1,0-2H46a1,1,0,0,1,0,2Z" transform="translate(-1.1 -5.1)" style="fill:#fff"/><path d="M24,7.1H2.1a.945.945,0,0,1-1-1,.945.945,0,0,1,1-1H24a.945.945,0,0,1,1,1A.945.945,0,0,1,24,7.1Z" transform="translate(-1.1 -5.1)" style="fill:#fff"/></svg>