<?xml version="1.0" encoding="utf-8"?>
<!-- Generator: Adobe Illustrator 24.0.3, SVG Export Plug-In . SVG Version: 6.00 Build 0)  -->
<svg version="1.1" id="Layer_1" xmlns="http://www.w3.org/2000/svg" xmlns:xlink="http://www.w3.org/1999/xlink" x="0px" y="0px"
	 viewBox="0 0 46 44" style="enable-background:new 0 0 46 44;" xml:space="preserve">
<style type="text/css">
	.st0{fill:#FFAD00;}
</style>
<title>Star Empty</title>
<desc>Created with Sketch.</desc>
<path class="st0" d="M44.9,16.9c-0.1-0.3-0.4-0.6-0.8-0.7l-13.5-2.7l-6.8-12c-0.4-0.6-1.4-0.6-1.7,0l-6.8,12L1.9,16.2
	c-0.4,0.1-0.6,0.3-0.8,0.7s0,0.7,0.2,1L10.7,28L9.1,41.7c0,0.4,0.1,0.7,0.4,0.9c0.2,0.1,0.4,0.2,0.6,0.2c0.1,0,0.3,0,0.4-0.1
	L23,36.9l12.5,5.8c0.3,0.2,0.7,0.1,1-0.1c0.3-0.2,0.4-0.6,0.4-0.9L35.3,28l9.3-10.2C44.9,17.6,45,17.2,44.9,16.9z M33.6,27
	c-0.2,0.2-0.3,0.5-0.3,0.8l1.4,12.3l-11.3-5.2c-0.1-0.1-0.3-0.1-0.4-0.1s-0.3,0-0.4,0.1l-11.3,5.2l1.4-12.3c0-0.3-0.1-0.6-0.3-0.8
	L4,17.8l12.2-2.5c0.3-0.1,0.5-0.2,0.7-0.5L23,4l6.1,10.9c0.1,0.3,0.4,0.4,0.7,0.5L42,17.8L33.6,27z"/>
</svg>
