<svg id="Layer_1" data-name="Layer 1" xmlns="http://www.w3.org/2000/svg" viewBox="0 0 46 46"><title>icon-dashboard-default</title><path d="M24,1A23,23,0,1,0,47,24,23,23,0,0,0,24,1Zm0,2A21,21,0,0,1,45,24a20.611,20.611,0,0,1-4.5,12.9,21.607,21.607,0,0,0-11.6-7.4,9.05,9.05,0,1,0-9.7,0A20.8,20.8,0,0,0,7.7,37.1,20.547,20.547,0,0,1,3,24,21,21,0,0,1,24,3Zm0,26a6.957,6.957,0,1,1,.086,0Zm0,16A21.18,21.18,0,0,1,9,38.7a18.8,18.8,0,0,1,30.2-.2A21.065,21.065,0,0,1,24,45Z" transform="translate(-1 -1)" style="fill:#fff"/></svg>