<svg id="Layer_1" data-name="Layer 1" xmlns="http://www.w3.org/2000/svg" viewBox="0 0 47.771 37.651"><title>icon-recess-default</title><path d="M47.705,5.6a.9.9,0,0,0-1.05-.382L.848,16.96a1.009,1.009,0,0,0-.668.573.926.926,0,0,0,.1.858L4,23.736V37.478a.854.854,0,0,0,.477.763,1.612,1.612,0,0,0,.478.191.572.572,0,0,0,.381-.095l6.681-2.959,4.867,7.062a.868.868,0,0,0,.763.382h0a.868.868,0,0,0,.763-.382L47.71,6.653A.856.856,0,0,0,47.705,5.6ZM41.216,8.562,9.246,28.03,2.661,18.391ZM5.906,36.046V26.5l5.058,7.348Zm11.833,4.3L10.391,29.652,42.552,9.993Z" transform="translate(-0.118 -5.172)" style="fill:#fff"/></svg>