<?xml version="1.0" encoding="utf-8"?>
<!-- Generator: Adobe Illustrator 24.0.3, SVG Export Plug-In . SVG Version: 6.00 Build 0)  -->
<svg version="1.1" id="Layer_1" xmlns="http://www.w3.org/2000/svg" xmlns:xlink="http://www.w3.org/1999/xlink" x="0px" y="0px"
	 viewBox="0 0 48 48" style="enable-background:new 0 0 48 48;" xml:space="preserve">
<title>User</title>
<desc>Created with Sketch.</desc>
<path d="M24,1C11.3,1,1,11.3,1,24s10.3,23,23,23s23-10.3,23-23S36.7,1,24,1z M24,3c11.6,0,21,9.4,21,21c0,4.9-1.7,9.4-4.5,12.9
	c-3-3.7-7.1-6.3-11.6-7.4c2.5-1.6,4.1-4.4,4.1-7.6c0-5-4-9-9-9s-9,4-9,9c0,3.2,1.7,6,4.2,7.6c-4.5,1.1-8.6,3.8-11.5,7.6
	C4.8,33.6,3,29,3,24C3,12.4,12.4,3,24,3z M24,29c-3.9,0-7-3.1-7-7s3.1-7,7-7s7,3.1,7,7S27.9,29,24,29z M24,45
	c-5.8,0-11.1-2.4-15-6.3c3.6-4.8,9.2-7.7,15.2-7.7c5.8,0,11.4,2.8,15,7.5C35.3,42.5,30,45,24,45z"/>
</svg>
