<?xml version="1.0" encoding="utf-8"?>
<!-- Generator: Adobe Illustrator 24.0.3, SVG Export Plug-In . SVG Version: 6.00 Build 0)  -->
<svg version="1.1" id="Layer_1" xmlns="http://www.w3.org/2000/svg" xmlns:xlink="http://www.w3.org/1999/xlink" x="0px" y="0px"
	 viewBox="0 0 48 48" style="enable-background:new 0 0 48 48;" xml:space="preserve">
<style type="text/css">
	.st0{fill:#FFAD00;}
</style>
<title>User</title>
<desc>Created with Sketch.</desc>
<g>
	<path class="st0" d="M46,19H2.1c-0.6,0-1-0.4-1-1s0.4-1,1-1H46c0.6,0,1,0.4,1,1S46.6,19,46,19z"/>
	<path class="st0" d="M46,31H2.1c-0.6,0-1-0.4-1-1s0.4-1,1-1H46c0.6,0,1,0.4,1,1S46.6,31,46,31z"/>
	<path class="st0" d="M46,42.9H2.1c-0.6,0-1-0.4-1-1s0.4-1,1-1H46c0.6,0,1,0.4,1,1S46.6,42.9,46,42.9z"/>
	<path class="st0" d="M24,7.1H2.1c-0.6,0-1-0.4-1-1s0.4-1,1-1H24c0.6,0,1,0.4,1,1S24.6,7.1,24,7.1z"/>
</g>
</svg>
