<svg id="Layer_1" data-name="Layer 1" xmlns="http://www.w3.org/2000/svg" viewBox="0 0 50.055 39.436"><title>icon-recess-active</title><path d="M50.8,1.5a.949.949,0,0,0-1.1-.4L1.7,13.4A1.057,1.057,0,0,0,1,14a.972.972,0,0,0,.1.9L5,20.5V34.9a.891.891,0,0,0,.5.8,1.689,1.689,0,0,0,.5.2.6.6,0,0,0,.4-.1l7-3.1,5.1,7.4a.909.909,0,0,0,.8.4h0a.909.909,0,0,0,.8-.4L50.8,2.6A.9.9,0,0,0,50.8,1.5ZM44,4.6,10.5,25,3.6,14.9ZM7,33.4v-10l5.3,7.7Zm12.4,4.5L11.7,26.7,45.4,6.1Z" transform="translate(-0.934 -1.064)" style="fill:#ffad00"/></svg>