<?xml version="1.0" encoding="utf-8"?>
<!-- Generator: Adobe Illustrator 24.0.3, SVG Export Plug-In . SVG Version: 6.00 Build 0)  -->
<svg version="1.1" id="Layer_1" xmlns="http://www.w3.org/2000/svg" xmlns:xlink="http://www.w3.org/1999/xlink" x="0px" y="0px"
	 viewBox="0 0 52 42" style="enable-background:new 0 0 52 42;" xml:space="preserve">
<title>Send</title>
<desc>Created with Sketch.</desc>
<path d="M50.8,1.5c-0.2-0.4-0.7-0.5-1.1-0.4l-48,12.3c-0.3,0.1-0.6,0.3-0.7,0.6c-0.1,0.3-0.1,0.6,0.1,0.9L5,20.5c0,0.1,0,0.1,0,0.2
	v14.2c0,0.3,0.2,0.7,0.5,0.8c0.2,0.1,0.4,0.2,0.5,0.2c0.1,0,0.3,0,0.4-0.1l7-3.1l5.1,7.4c0.2,0.3,0.5,0.4,0.8,0.4c0,0,0,0,0,0
	c0.3,0,0.6-0.1,0.8-0.4L50.8,2.6C51,2.3,51.1,1.8,50.8,1.5z M44,4.6L10.5,25L3.6,14.9L44,4.6z M7,33.4v-10l5.3,7.7L7,33.4z
	 M19.4,37.9l-7.7-11.2L45.4,6.1L19.4,37.9z"/>
</svg>
