<svg id="Layer_1" data-name="Layer 1" xmlns="http://www.w3.org/2000/svg" viewBox="0 0 43.921 41.754"><title>icon-favorites-default</title><path d="M45.922,18.974a1.138,1.138,0,0,0-.8-.7l-13.5-2.7-6.8-12a1.027,1.027,0,0,0-1.7,0l-6.8,12-13.4,2.7a1.121,1.121,0,0,0-.8.7c-.2.4,0,.7.2,1l9.4,10.1-1.6,13.7a.976.976,0,0,0,.4.9,1.442,1.442,0,0,0,.6.2.6.6,0,0,0,.4-.1l12.5-5.8,12.5,5.8a.922.922,0,0,0,1-.1,1.083,1.083,0,0,0,.4-.9l-1.6-13.7,9.3-10.2A.8.8,0,0,0,45.922,18.974Zm-11.3,10.1a1.135,1.135,0,0,0-.3.8l1.4,12.3-11.3-5.2a.846.846,0,0,0-.8,0l-11.3,5.2,1.4-12.3a1.122,1.122,0,0,0-.3-.8l-8.4-9.2,12.2-2.5a1.159,1.159,0,0,0,.7-.5l6.1-10.8,6.1,10.9c.1.3.4.4.7.5l12.2,2.4Z" transform="translate(-2.04 -3.123)" style="fill:#fff"/></svg>