<svg id="Layer_1" data-name="Layer 1" xmlns="http://www.w3.org/2000/svg" viewBox="0 0 45.902 37.8"><title>icon-rubrics-default</title><path d="M45.949,19H2.049a1,1,0,1,1,0-2h43.9a.945.945,0,0,1,1,.887h0a1.065,1.065,0,0,1,0,.113A1,1,0,0,1,45.949,19Z" transform="translate(-1.049 -5.1)" style="fill:#fff"/><path d="M45.949,31H2.049a1,1,0,1,1,0-2h43.9a.945.945,0,0,1,1,.887h0a1.065,1.065,0,0,1,0,.113A1,1,0,0,1,45.949,31Z" transform="translate(-1.049 -5.1)" style="fill:#fff"/><path d="M45.949,42.9H2.049a1,1,0,1,1,0-2h43.9a.945.945,0,0,1,1,.887h0a1.065,1.065,0,0,1,0,.113A1,1,0,0,1,45.949,42.9Z" transform="translate(-1.049 -5.1)" style="fill:#fff"/><path d="M23.949,7.1H2.049a.987.987,0,0,1-1-.9V6.1a.987.987,0,0,1,.9-1h22a.986.986,0,0,1,1,.9v.1a.986.986,0,0,1-.9,1Z" transform="translate(-1.049 -5.1)" style="fill:#fff"/></svg>