<svg id="Layer_1" data-name="Layer 1" xmlns="http://www.w3.org/2000/svg" viewBox="0 0 43.92 41.759"><title>icon-favorites-active</title><path d="M44.9,16.9a1.143,1.143,0,0,0-.8-.7L30.6,13.5l-6.8-12a1.027,1.027,0,0,0-1.7,0l-6.8,12L1.9,16.2a1.12,1.12,0,0,0-.8.7c-.2.4,0,.7.2,1L10.7,28,9.1,41.7a.975.975,0,0,0,.4.9,1.421,1.421,0,0,0,.6.2.6.6,0,0,0,.4-.1L23,36.9l12.5,5.8a.92.92,0,0,0,1-.1,1.086,1.086,0,0,0,.4-.9L35.3,28l9.3-10.2A.806.806,0,0,0,44.9,16.9ZM33.6,27a1.135,1.135,0,0,0-.3.8l1.4,12.3L23.4,34.9a.85.85,0,0,0-.8,0L11.3,40.1l1.4-12.3a1.135,1.135,0,0,0-.3-.8L4,17.8l12.2-2.5a1.157,1.157,0,0,0,.7-.5L23,4l6.1,10.9c.1.3.4.4.7.5L42,17.8Z" transform="translate(-1.017 -1.05)" style="fill:#ffad00"/></svg>