<?xml version="1.0" encoding="utf-8"?>
<!-- Generator: Adobe Illustrator 24.0.3, SVG Export Plug-In . SVG Version: 6.00 Build 0)  -->
<svg version="1.0" id="Layer_1" xmlns="http://www.w3.org/2000/svg" xmlns:xlink="http://www.w3.org/1999/xlink" x="0px" y="0px"
	 viewBox="0 0 203.7 61.4" style="enable-background:new 0 0 203.7 61.4;" xml:space="preserve">
<g>
	<path d="M0,21.6h12v6.2h0.2c1.3-2.4,2.8-4.2,4.6-5.4c1.8-1.2,4-1.8,6.6-1.8c0.7,0,1.4,0,2.1,0.1c0.7,0.1,1.3,0.2,1.9,0.3v11
		c-0.9-0.3-1.7-0.5-2.5-0.6c-0.8-0.1-1.7-0.2-2.6-0.2c-2.3,0-4.1,0.3-5.4,1c-1.3,0.6-2.4,1.5-3.1,2.7C13,36,12.5,37.4,12.3,39
		c-0.2,1.6-0.3,3.4-0.3,5.3v16.2H0V21.6z"/>
	<path d="M68.4,60.5H56.9v-5.3h-0.2c-0.4,0.7-1,1.5-1.6,2.2c-0.7,0.7-1.5,1.4-2.4,2c-1,0.6-2.1,1.1-3.3,1.4c-1.2,0.4-2.6,0.6-4,0.6
		c-3,0-5.5-0.5-7.4-1.4c-1.9-0.9-3.4-2.2-4.4-3.9s-1.7-3.6-2.1-5.8C31.1,48.1,31,45.7,31,43V21.6h12v19c0,1.1,0,2.3,0.1,3.5
		c0.1,1.2,0.3,2.3,0.7,3.3c0.4,1,1,1.8,1.8,2.5c0.8,0.6,2,1,3.6,1c1.5,0,2.8-0.3,3.8-0.8c1-0.6,1.7-1.3,2.2-2.2c0.5-0.9,0.8-2,1-3.2
		c0.2-1.2,0.2-2.4,0.2-3.7V21.6h12V60.5z"/>
	<path d="M74.8,0h12v25.8H87c1.4-1.9,3.2-3.2,5.3-4c2.2-0.8,4.5-1.2,7-1.2c2.8,0,5.3,0.6,7.4,1.7c2.2,1.1,4,2.7,5.6,4.6
		c1.5,1.9,2.7,4.1,3.5,6.6c0.8,2.5,1.2,5.1,1.2,7.8c0,2.9-0.5,5.6-1.4,8.1c-0.9,2.5-2.2,4.6-3.9,6.4c-1.7,1.8-3.7,3.2-6,4.2
		c-2.3,1-5,1.5-7.8,1.5c-1.4,0-2.7-0.2-3.9-0.6c-1.2-0.4-2.4-0.9-3.4-1.4c-1-0.6-1.9-1.2-2.7-2c-0.8-0.7-1.4-1.4-1.9-2.1h-0.2v5.1
		h-11V0z M85.8,41c0,2.9,0.8,5.3,2.5,7.1c1.7,1.8,4,2.7,7.1,2.7s5.4-0.9,7.1-2.7c1.7-1.8,2.5-4.2,2.5-7.1c0-2.9-0.8-5.3-2.5-7.1
		c-1.7-1.8-4-2.7-7.1-2.7s-5.4,0.9-7.1,2.7C86.7,35.7,85.8,38.1,85.8,41z"/>
	<path d="M120.9,21.6h12v6.2h0.2c1.3-2.4,2.8-4.2,4.6-5.4s4-1.8,6.6-1.8c0.7,0,1.4,0,2.1,0.1c0.7,0.1,1.3,0.2,1.9,0.3v11
		c-0.9-0.3-1.7-0.5-2.5-0.6c-0.8-0.1-1.7-0.2-2.6-0.2c-2.3,0-4.1,0.3-5.4,1c-1.3,0.6-2.4,1.5-3.1,2.7c-0.7,1.1-1.2,2.5-1.4,4.1
		c-0.2,1.6-0.3,3.4-0.3,5.3v16.2h-12V21.6z"/>
	<path d="M152,21.6h12v38.9h-12V21.6z"/>
	<path d="M195.8,34.2c-0.6-0.9-1.4-1.6-2.5-2.1c-1.1-0.6-2.2-0.8-3.4-0.8c-3,0-5.4,0.9-7.1,2.7c-1.7,1.8-2.5,4.2-2.5,7.1
		c0,2.9,0.8,5.3,2.5,7.1c1.7,1.8,4,2.7,7.1,2.7c1.3,0,2.5-0.3,3.4-0.9s1.8-1.3,2.5-2.1l7.9,8.3c-1.9,1.9-4.1,3.3-6.6,4
		c-2.5,0.8-4.9,1.2-7.2,1.2c-3,0-5.8-0.5-8.4-1.4c-2.6-1-4.9-2.3-6.9-4.1c-1.9-1.8-3.5-3.9-4.6-6.4c-1.1-2.5-1.7-5.3-1.7-8.4
		c0-3.1,0.6-5.9,1.7-8.4c1.1-2.5,2.7-4.7,4.6-6.4c1.9-1.8,4.2-3.2,6.9-4.1c2.6-1,5.5-1.4,8.4-1.4c2.3,0,4.7,0.4,7.2,1.2
		c2.5,0.8,4.7,2.1,6.6,4L195.8,34.2z"/>
</g>
</svg>
